%TF.GenerationSoftware,KiCad,Pcbnew,9.0.3*%
%TF.CreationDate,2026-06-23T23:47:18-04:00*%
%TF.ProjectId,Untitled,556e7469-746c-4656-942e-6b696361645f,rev?*%
%TF.SameCoordinates,Original*%
%TF.FileFunction,Soldermask,Bot*%
%TF.FilePolarity,Negative*%
%FSLAX46Y46*%
G04 Gerber Fmt 4.6, Leading zero omitted, Abs format (unit mm)*
G04 Created by KiCad (PCBNEW 9.0.3) date 2026-06-23 23:47:18*
%MOMM*%
%LPD*%
G01*
G04 APERTURE LIST*
%ADD10O,10.400000X8.600000*%
%ADD11R,1.200000X2.000000*%
%ADD12O,1.200000X2.000000*%
%ADD13C,2.100000*%
%ADD14C,0.900000*%
%ADD15C,1.200000*%
%ADD16R,2.200000X2.200000*%
%ADD17C,2.200000*%
G04 APERTURE END LIST*
D10*
%TO.C,H2*%
X75950000Y-68190000D03*
%TD*%
%TO.C,H1*%
X50540000Y-68200000D03*
%TD*%
D11*
%TO.C,U7*%
X35312720Y-115796320D03*
D12*
X37852720Y-115796320D03*
X40392720Y-115796320D03*
X42932720Y-115796320D03*
X45472720Y-115796320D03*
X48012720Y-115796320D03*
X50552720Y-115796320D03*
X53092720Y-115796320D03*
X55632720Y-115796320D03*
X58172720Y-115796320D03*
X60712720Y-115796320D03*
X63252720Y-115796320D03*
X65792720Y-115796320D03*
X68332720Y-115796320D03*
X70872720Y-115796320D03*
X73412720Y-115796320D03*
X75952720Y-115796320D03*
X78492720Y-115796320D03*
X81032720Y-115796320D03*
X83570000Y-115800000D03*
X86110000Y-115800000D03*
X88650000Y-115800000D03*
X88650000Y-90300000D03*
X86110000Y-90300000D03*
X83570000Y-90300000D03*
X81030000Y-90300000D03*
X78490000Y-90300000D03*
X75950000Y-90300000D03*
X73410000Y-90300000D03*
X70870000Y-90300000D03*
X68330000Y-90300000D03*
X65790000Y-90300000D03*
X63250000Y-90300000D03*
X60710000Y-90300000D03*
X58170000Y-90300000D03*
X55630000Y-90300000D03*
X53090000Y-90300000D03*
X50550000Y-90300000D03*
X48010000Y-90300000D03*
X45470000Y-90300000D03*
X42930000Y-90300000D03*
X40390000Y-90300000D03*
X37850000Y-90300000D03*
X35310000Y-90300000D03*
%TD*%
D13*
%TO.C,U5*%
X119710000Y-131620000D03*
X119710000Y-128120000D03*
X119710000Y-124620000D03*
X119710000Y-121120000D03*
%TD*%
%TO.C,U3*%
X119710000Y-103620000D03*
X119710000Y-100120000D03*
X119710000Y-96620000D03*
X119710000Y-93120000D03*
%TD*%
D14*
%TO.C,REF\u002A\u002A*%
X112160000Y-68230000D03*
X111811000Y-69680000D03*
X111811000Y-66780000D03*
X110930000Y-70751000D03*
X110930000Y-65709000D03*
X109515000Y-71381000D03*
X109515000Y-65079000D03*
X108010000Y-71455000D03*
D10*
X108010000Y-68230000D03*
D14*
X108010000Y-65005000D03*
X106505000Y-71381000D03*
X106505000Y-65079000D03*
X105090000Y-70751000D03*
X105090000Y-65709000D03*
X104209000Y-69680000D03*
X104209000Y-66780000D03*
X103860000Y-68230000D03*
%TD*%
%TO.C,REF\u002A\u002A*%
X103840000Y-142220000D03*
X104189000Y-140770000D03*
X104189000Y-143670000D03*
X105070000Y-139699000D03*
X105070000Y-144741000D03*
X106485000Y-139069000D03*
X106485000Y-145371000D03*
X107990000Y-138995000D03*
D10*
X107990000Y-142220000D03*
D14*
X107990000Y-145445000D03*
X109495000Y-139069000D03*
X109495000Y-145371000D03*
X110910000Y-139699000D03*
X110910000Y-144741000D03*
X111791000Y-140770000D03*
X111791000Y-143670000D03*
X112140000Y-142220000D03*
%TD*%
D13*
%TO.C,U1*%
X119710000Y-75620000D03*
X119710000Y-72120000D03*
X119710000Y-68620000D03*
X119710000Y-65120000D03*
%TD*%
D14*
%TO.C,REF\u002A\u002A*%
X30350000Y-142220000D03*
X30699000Y-140770000D03*
X30699000Y-143670000D03*
X31580000Y-139699000D03*
X31580000Y-144741000D03*
X32995000Y-139069000D03*
X32995000Y-145371000D03*
X34500000Y-138995000D03*
D10*
X34500000Y-142220000D03*
D14*
X34500000Y-145445000D03*
X36005000Y-139069000D03*
X36005000Y-145371000D03*
X37420000Y-139699000D03*
X37420000Y-144741000D03*
X38301000Y-140770000D03*
X38301000Y-143670000D03*
X38650000Y-142220000D03*
%TD*%
D13*
%TO.C,U6*%
X119710000Y-145620000D03*
X119710000Y-142120000D03*
X119710000Y-138620000D03*
X119710000Y-135120000D03*
%TD*%
%TO.C,U2*%
X119710000Y-89620000D03*
X119710000Y-86120000D03*
X119710000Y-82620000D03*
X119710000Y-79120000D03*
%TD*%
D14*
%TO.C,REF\u002A\u002A*%
X38650000Y-68225000D03*
X38301000Y-69675000D03*
X38301000Y-66775000D03*
X37420000Y-70746000D03*
X37420000Y-65704000D03*
X36005000Y-71376000D03*
X36005000Y-65074000D03*
X34500000Y-71450000D03*
D10*
X34500000Y-68225000D03*
D14*
X34500000Y-65000000D03*
X32995000Y-71376000D03*
X32995000Y-65074000D03*
X31580000Y-70746000D03*
X31580000Y-65704000D03*
X30699000Y-69675000D03*
X30699000Y-66775000D03*
X30350000Y-68225000D03*
%TD*%
D15*
%TO.C,Card1*%
X97630000Y-67052500D03*
X89630000Y-67052500D03*
%TD*%
D13*
%TO.C,U4*%
X119710000Y-117620000D03*
X119710000Y-114120000D03*
X119710000Y-110620000D03*
X119710000Y-107120000D03*
%TD*%
D16*
%TO.C,U18*%
X45700000Y-143870000D03*
D17*
X49200000Y-143870000D03*
X52700000Y-143870000D03*
X56200000Y-143870000D03*
X59700000Y-143870000D03*
X63200000Y-143870000D03*
X66700000Y-143870000D03*
X70200000Y-143870000D03*
%TD*%
D16*
%TO.C,U14*%
X73699800Y-143870000D03*
D17*
X77199800Y-143870000D03*
X80699800Y-143870000D03*
X84199800Y-143870000D03*
X87699800Y-143870000D03*
X91199800Y-143870000D03*
X94699800Y-143870000D03*
X98199800Y-143870000D03*
%TD*%
M02*
