%TF.GenerationSoftware,KiCad,Pcbnew,9.0.3*%
%TF.CreationDate,2026-06-23T23:47:18-04:00*%
%TF.ProjectId,Untitled,556e7469-746c-4656-942e-6b696361645f,rev?*%
%TF.SameCoordinates,Original*%
%TF.FileFunction,Paste,Top*%
%TF.FilePolarity,Positive*%
%FSLAX46Y46*%
G04 Gerber Fmt 4.6, Leading zero omitted, Abs format (unit mm)*
G04 Created by KiCad (PCBNEW 9.0.3) date 2026-06-23 23:47:18*
%MOMM*%
%LPD*%
G01*
G04 APERTURE LIST*
G04 Aperture macros list*
%AMRoundRect*
0 Rectangle with rounded corners*
0 $1 Rounding radius*
0 $2 $3 $4 $5 $6 $7 $8 $9 X,Y pos of 4 corners*
0 Add a 4 corners polygon primitive as box body*
4,1,4,$2,$3,$4,$5,$6,$7,$8,$9,$2,$3,0*
0 Add four circle primitives for the rounded corners*
1,1,$1+$1,$2,$3*
1,1,$1+$1,$4,$5*
1,1,$1+$1,$6,$7*
1,1,$1+$1,$8,$9*
0 Add four rect primitives between the rounded corners*
20,1,$1+$1,$2,$3,$4,$5,0*
20,1,$1+$1,$4,$5,$6,$7,0*
20,1,$1+$1,$6,$7,$8,$9,0*
20,1,$1+$1,$8,$9,$2,$3,0*%
G04 Aperture macros list end*
%ADD10RoundRect,0.250000X0.450000X-0.350000X0.450000X0.350000X-0.450000X0.350000X-0.450000X-0.350000X0*%
%ADD11O,1.731000X0.343000*%
%ADD12RoundRect,0.250000X0.350000X0.450000X-0.350000X0.450000X-0.350000X-0.450000X0.350000X-0.450000X0*%
%ADD13R,1.500000X2.000000*%
%ADD14RoundRect,0.250000X0.337500X0.475000X-0.337500X0.475000X-0.337500X-0.475000X0.337500X-0.475000X0*%
%ADD15R,0.550000X1.200000*%
%ADD16RoundRect,0.250000X0.475000X-0.337500X0.475000X0.337500X-0.475000X0.337500X-0.475000X-0.337500X0*%
%ADD17R,0.900000X0.500000*%
%ADD18RoundRect,0.250000X0.325000X0.650000X-0.325000X0.650000X-0.325000X-0.650000X0.325000X-0.650000X0*%
%ADD19RoundRect,0.250000X-0.337500X-0.475000X0.337500X-0.475000X0.337500X0.475000X-0.337500X0.475000X0*%
%ADD20R,0.700000X1.600000*%
%ADD21R,1.200000X1.500000*%
%ADD22R,1.200000X2.200000*%
%ADD23R,1.600000X1.500000*%
%ADD24RoundRect,0.250000X-0.650000X0.325000X-0.650000X-0.325000X0.650000X-0.325000X0.650000X0.325000X0*%
%ADD25RoundRect,0.250000X0.650000X-0.325000X0.650000X0.325000X-0.650000X0.325000X-0.650000X-0.325000X0*%
%ADD26R,4.220000X2.124000*%
G04 APERTURE END LIST*
D10*
%TO.C,R17*%
X58650000Y-125500000D03*
X58650000Y-123500000D03*
%TD*%
D11*
%TO.C,U12*%
X109310000Y-102310000D03*
X109310000Y-101660000D03*
X109310000Y-101010000D03*
X109310000Y-100350000D03*
X109310000Y-99700000D03*
X109310000Y-99050000D03*
X109310000Y-98400000D03*
X109310000Y-97750000D03*
X103570000Y-97750000D03*
X103570000Y-98400000D03*
X103570000Y-99050000D03*
X103570000Y-99700000D03*
X103570000Y-100350000D03*
X103570000Y-101010000D03*
X103570000Y-101660000D03*
X103570000Y-102310000D03*
%TD*%
D12*
%TO.C,R19*%
X56210000Y-138860000D03*
X54210000Y-138860000D03*
%TD*%
%TO.C,R10*%
X77200000Y-138860000D03*
X75200000Y-138860000D03*
%TD*%
D10*
%TO.C,R6*%
X89190000Y-125500000D03*
X89190000Y-123500000D03*
%TD*%
D13*
%TO.C,U11*%
X86650000Y-136670000D03*
X89190000Y-136670000D03*
X89190000Y-127570000D03*
X86650000Y-127570000D03*
%TD*%
D10*
%TO.C,R14*%
X65650000Y-125500000D03*
X65650000Y-123500000D03*
%TD*%
D14*
%TO.C,C3*%
X63327500Y-81970000D03*
X61252500Y-81970000D03*
%TD*%
D10*
%TO.C,R8*%
X79650000Y-125500000D03*
X79650000Y-123500000D03*
%TD*%
D11*
%TO.C,U16*%
X109310000Y-107650000D03*
X109310000Y-107000000D03*
X109310000Y-106350000D03*
X109310000Y-105690000D03*
X109310000Y-105040000D03*
X109310000Y-104390000D03*
X109310000Y-103740000D03*
X109310000Y-103090000D03*
X103570000Y-103090000D03*
X103570000Y-103740000D03*
X103570000Y-104390000D03*
X103570000Y-105040000D03*
X103570000Y-105690000D03*
X103570000Y-106350000D03*
X103570000Y-107000000D03*
X103570000Y-107650000D03*
%TD*%
D12*
%TO.C,R4*%
X91200000Y-138860000D03*
X89200000Y-138860000D03*
%TD*%
D11*
%TO.C,U20*%
X109310000Y-112990000D03*
X109310000Y-112340000D03*
X109310000Y-111690000D03*
X109310000Y-111030000D03*
X109310000Y-110380000D03*
X109310000Y-109730000D03*
X109310000Y-109080000D03*
X109310000Y-108430000D03*
X103570000Y-108430000D03*
X103570000Y-109080000D03*
X103570000Y-109730000D03*
X103570000Y-110380000D03*
X103570000Y-111030000D03*
X103570000Y-111690000D03*
X103570000Y-112340000D03*
X103570000Y-112990000D03*
%TD*%
D10*
%TO.C,R3*%
X96190000Y-125500000D03*
X96190000Y-123500000D03*
%TD*%
%TO.C,R21*%
X54190000Y-125500000D03*
X54190000Y-123500000D03*
%TD*%
D14*
%TO.C,C85*%
X103567500Y-114630000D03*
X101492500Y-114630000D03*
%TD*%
D12*
%TO.C,R1*%
X98190000Y-138860000D03*
X96190000Y-138860000D03*
%TD*%
D13*
%TO.C,U10*%
X93650000Y-136680000D03*
X96190000Y-136680000D03*
X96190000Y-127580000D03*
X93650000Y-127580000D03*
%TD*%
D10*
%TO.C,R11*%
X72650000Y-125500000D03*
X72650000Y-123500000D03*
%TD*%
D12*
%TO.C,R16*%
X63200000Y-138860000D03*
X61200000Y-138860000D03*
%TD*%
D15*
%TO.C,U8*%
X64760000Y-69730000D03*
X63810000Y-69730000D03*
X62860000Y-69730000D03*
X62860000Y-72130000D03*
X63810000Y-72130000D03*
X64760000Y-72130000D03*
%TD*%
D10*
%TO.C,R9*%
X82190000Y-125500000D03*
X82190000Y-123500000D03*
%TD*%
D12*
%TO.C,R13*%
X70200000Y-138860000D03*
X68200000Y-138860000D03*
%TD*%
D10*
%TO.C,R23*%
X44650000Y-125500000D03*
X44650000Y-123500000D03*
%TD*%
%TO.C,R18*%
X61190000Y-125500000D03*
X61190000Y-123500000D03*
%TD*%
D16*
%TO.C,C6*%
X59070000Y-85517500D03*
X59070000Y-83442500D03*
%TD*%
D10*
%TO.C,R2*%
X93650000Y-125500000D03*
X93650000Y-123500000D03*
%TD*%
D13*
%TO.C,U17*%
X65660000Y-136680000D03*
X68200000Y-136680000D03*
X68200000Y-127580000D03*
X65660000Y-127580000D03*
%TD*%
%TO.C,U13*%
X79670000Y-136680000D03*
X82210000Y-136680000D03*
X82210000Y-127580000D03*
X79670000Y-127580000D03*
%TD*%
D17*
%TO.C,Q1*%
X63327500Y-85510000D03*
X63327500Y-84560000D03*
X63327500Y-83610000D03*
X60727500Y-83610000D03*
X60727500Y-85510000D03*
%TD*%
D14*
%TO.C,C8*%
X106430000Y-96140000D03*
X104355000Y-96140000D03*
%TD*%
D10*
%TO.C,R20*%
X51650000Y-125500000D03*
X51650000Y-123500000D03*
%TD*%
D18*
%TO.C,C7*%
X93728000Y-80237500D03*
X90778000Y-80237500D03*
%TD*%
D19*
%TO.C,C1*%
X66300000Y-71930000D03*
X68375000Y-71930000D03*
%TD*%
D12*
%TO.C,R7*%
X84210000Y-138860000D03*
X82210000Y-138860000D03*
%TD*%
D20*
%TO.C,Card1*%
X90430000Y-78052500D03*
X91530000Y-78052500D03*
X92630000Y-78052500D03*
X93730000Y-78052500D03*
X94830000Y-78052500D03*
X95930000Y-78052500D03*
X97030000Y-78052500D03*
X98130000Y-78052500D03*
D21*
X100430000Y-77052500D03*
D22*
X100430000Y-67452500D03*
X84930000Y-67452500D03*
D23*
X85830000Y-77052500D03*
D20*
X99230000Y-78052500D03*
%TD*%
D13*
%TO.C,U22*%
X44660000Y-136670000D03*
X47200000Y-136670000D03*
X47200000Y-127570000D03*
X44660000Y-127570000D03*
%TD*%
D10*
%TO.C,R15*%
X68190000Y-125500000D03*
X68190000Y-123500000D03*
%TD*%
%TO.C,R12*%
X75190000Y-125500000D03*
X75190000Y-123500000D03*
%TD*%
%TO.C,R24*%
X47190000Y-125500000D03*
X47190000Y-123500000D03*
%TD*%
%TO.C,R5*%
X86650000Y-125500000D03*
X86650000Y-123500000D03*
%TD*%
D12*
%TO.C,R22*%
X49200000Y-138850000D03*
X47200000Y-138850000D03*
%TD*%
D24*
%TO.C,C2*%
X61010000Y-69055000D03*
X61010000Y-72005000D03*
%TD*%
D13*
%TO.C,U21*%
X51670000Y-136680000D03*
X54210000Y-136680000D03*
X54210000Y-127580000D03*
X51670000Y-127580000D03*
%TD*%
D25*
%TO.C,C4*%
X58710000Y-76765000D03*
X58710000Y-73815000D03*
%TD*%
D26*
%TO.C,L1*%
X64780000Y-74480000D03*
X64780000Y-78480000D03*
%TD*%
D25*
%TO.C,C5*%
X61010000Y-76765000D03*
X61010000Y-73815000D03*
%TD*%
D13*
%TO.C,U19*%
X58660000Y-136680000D03*
X61200000Y-136680000D03*
X61200000Y-127580000D03*
X58660000Y-127580000D03*
%TD*%
%TO.C,U15*%
X72660000Y-136680000D03*
X75200000Y-136680000D03*
X75200000Y-127580000D03*
X72660000Y-127580000D03*
%TD*%
M02*
