M48
; DRILL file {KiCad 9.0.3} date 2026-06-20T16:51:03-0400
; FORMAT={-:-/ absolute / inch / decimal}
; #@! TF.CreationDate,2026-06-20T16:51:03-04:00
; #@! TF.GenerationSoftware,Kicad,Pcbnew,9.0.3
; #@! TF.FileFunction,Plated,1,2,PTH
FMAT,2
INCH
; #@! TA.AperFunction,Plated,PTH,ViaDrill
T1C0.0118
; #@! TA.AperFunction,Plated,PTH,ComponentDrill
T2C0.0236
; #@! TA.AperFunction,Plated,PTH,ComponentDrill
T3C0.0315
; #@! TA.AperFunction,Plated,PTH,ViaDrill
T4C0.0394
; #@! TA.AperFunction,Plated,PTH,ComponentDrill
T5C0.0472
; #@! TA.AperFunction,Plated,PTH,ComponentDrill
T6C0.0512
; #@! TA.AperFunction,Plated,PTH,ComponentDrill
T7C0.0551
; #@! TA.AperFunction,Plated,PTH,ComponentDrill
T8C0.1693
%
G90
G05
T1
X1.6906Y-4.8622
X1.9665Y-4.8622
X2.0398Y-5.0937
X2.2417Y-4.8622
X2.2882Y-5.0937
X2.3094Y-3.2268
X2.3118Y-2.8705
X2.324Y-2.8268
X2.3665Y-3.2272
X2.3799Y-2.8709
X2.4264Y-2.8709
X2.4303Y-3.2913
X2.4346Y-3.4445
X2.442Y-3.3291
X2.4504Y-2.8398
X2.5177Y-4.8622
X2.5634Y-5.0937
X2.7933Y-4.8622
X2.8382Y-5.0937
X3.0693Y-4.8622
X3.1146Y-5.0937
X3.3433Y-2.5883
X3.3437Y-2.8643
X3.3445Y-4.8622
X3.3894Y-5.0933
X3.4425Y-3.0969
X3.4901Y-4.4994
X3.4902Y-4.6181
X3.5574Y-3.2916
X3.6205Y-4.8622
X3.629Y-3.1588
X3.665Y-5.0937
X3.7406Y-3.1584
X3.7764Y-3.1237
X3.8201Y-3.158
X3.9067Y-3.158
X3.9496Y-4.5126
X3.9539Y-2.5891
X3.9539Y-2.8643
X3.9988Y-3.9768
X4.0059Y-4.0582
X4.0059Y-3.8476
X4.0232Y-4.3972
X4.0236Y-3.874
X4.0236Y-4.028
X4.0236Y-4.0843
X4.0236Y-4.187
X4.0236Y-4.2382
X4.0236Y-4.2945
X4.0236Y-4.4484
X4.0625Y-3.7846
X4.1311Y-3.9508
X4.1315Y-4.161
X4.1315Y-4.3713
X4.2354Y-3.9512
X4.2358Y-4.161
X4.3654Y-3.8474
X4.3654Y-4.0577
X4.3654Y-4.2679
T2
X1.1949Y-2.686
X1.1949Y-5.5992
X1.2086Y-2.6289
X1.2086Y-2.7431
X1.2086Y-5.5421
X1.2086Y-5.6563
X1.2433Y-2.5868
X1.2433Y-2.7853
X1.2433Y-5.5
X1.2433Y-5.6985
X1.299Y-2.562
X1.299Y-2.8101
X1.299Y-5.4752
X1.299Y-5.7233
X1.3583Y-2.5591
X1.3583Y-2.813
X1.3583Y-5.4722
X1.3583Y-5.7262
X1.4175Y-2.562
X1.4175Y-2.8101
X1.4175Y-5.4752
X1.4175Y-5.7233
X1.4732Y-2.5868
X1.4732Y-2.7853
X1.4732Y-5.5
X1.4732Y-5.6985
X1.5079Y-2.6289
X1.5079Y-2.7431
X1.5079Y-5.5421
X1.5079Y-5.6563
X1.5217Y-2.686
X1.5217Y-5.5992
X4.0882Y-5.5992
X4.089Y-2.6862
X4.1019Y-5.5421
X4.1019Y-5.6563
X4.1027Y-2.6291
X4.1027Y-2.7433
X4.1366Y-5.5
X4.1366Y-5.6985
X4.1374Y-2.587
X4.1374Y-2.7855
X4.1923Y-5.4752
X4.1923Y-5.7233
X4.1931Y-2.5622
X4.1931Y-2.8103
X4.2516Y-5.4722
X4.2516Y-5.7262
X4.2524Y-2.5593
X4.2524Y-2.8132
X4.3108Y-5.4752
X4.3108Y-5.7233
X4.3116Y-2.5622
X4.3116Y-2.8103
X4.3665Y-5.5
X4.3665Y-5.6985
X4.3673Y-2.587
X4.3673Y-2.7855
X4.4012Y-5.5421
X4.4012Y-5.6563
X4.402Y-2.6291
X4.402Y-2.7433
X4.415Y-5.5992
X4.4157Y-2.6862
T3
X1.3902Y-3.5551
X1.3903Y-4.5589
X1.4902Y-3.5551
X1.4903Y-4.5589
X1.5902Y-3.5551
X1.5903Y-4.5589
X1.6902Y-3.5551
X1.6903Y-4.5589
X1.7902Y-3.5551
X1.7903Y-4.5589
X1.8902Y-3.5551
X1.8903Y-4.5589
X1.9902Y-3.5551
X1.9903Y-4.5589
X2.0902Y-3.5551
X2.0903Y-4.5589
X2.1902Y-3.5551
X2.1903Y-4.5589
X2.2902Y-3.5551
X2.2903Y-4.5589
X2.3902Y-3.5551
X2.3903Y-4.5589
X2.4902Y-3.5551
X2.4903Y-4.5589
X2.5902Y-3.5551
X2.5903Y-4.5589
X2.6902Y-3.5551
X2.6903Y-4.5589
X2.7902Y-3.5551
X2.7903Y-4.5589
X2.8902Y-3.5551
X2.8903Y-4.5589
X2.9902Y-3.5551
X2.9903Y-4.5589
X3.0902Y-3.5551
X3.0903Y-4.5589
X3.1902Y-3.5551
X3.1903Y-4.5589
X3.2902Y-3.5551
X3.2902Y-4.5591
X3.3902Y-3.5551
X3.3902Y-4.5591
X3.4902Y-3.5551
X3.4902Y-4.5591
T4
X3.8638Y-4.028
X3.8638Y-5.1408
T5
X3.5287Y-2.6399
X3.8437Y-2.6399
T6
X4.713Y-2.5638
X4.713Y-2.7016
X4.713Y-2.8394
X4.713Y-2.9772
X4.713Y-3.115
X4.713Y-3.2528
X4.713Y-3.3906
X4.713Y-3.5283
X4.713Y-3.6661
X4.713Y-3.8039
X4.713Y-3.9417
X4.713Y-4.0795
X4.713Y-4.2173
X4.713Y-4.3551
X4.713Y-4.4929
X4.713Y-4.6307
X4.713Y-4.7685
X4.713Y-4.9063
X4.713Y-5.0441
X4.713Y-5.1819
X4.713Y-5.3197
X4.713Y-5.4575
X4.713Y-5.5953
X4.713Y-5.7331
T7
X1.7992Y-5.6642
X1.937Y-5.6642
X2.0748Y-5.6642
X2.2126Y-5.6642
X2.3504Y-5.6642
X2.4882Y-5.6642
X2.626Y-5.6642
X2.7638Y-5.6642
X2.9016Y-5.6642
X3.0394Y-5.6642
X3.1772Y-5.6642
X3.315Y-5.6642
X3.4527Y-5.6642
X3.5905Y-5.6642
X3.7283Y-5.6642
X3.8661Y-5.6642
T8
G00X1.3957Y-2.686
M15
G01X1.3209Y-2.686
M16
G05
G00X1.3209Y-5.5992
M15
G01X1.3957Y-5.5992
M16
G05
G00X2.0272Y-2.6567
M15
G01X1.9524Y-2.6567
M16
G05
G00X3.0276Y-2.6563
M15
G01X2.9528Y-2.6563
M16
G05
G00X4.2142Y-5.5992
M15
G01X4.289Y-5.5992
M16
G05
G00X4.2898Y-2.6862
M15
G01X4.215Y-2.6862
M16
G05
M30
